<?xml version="1.0" encoding="utf-8"?>
<!-- Generator: Adobe Illustrator 16.0.0, SVG Export Plug-In . SVG Version: 6.00 Build 0)  -->
<!DOCTYPE svg PUBLIC "-//W3C//DTD SVG 1.1//EN" "http://www.w3.org/Graphics/SVG/1.1/DTD/svg11.dtd">
<svg version="1.1" id="Layer_1" xmlns="http://www.w3.org/2000/svg" xmlns:xlink="http://www.w3.org/1999/xlink" x="0px" y="0px"
	 width="50px" height="37.233px" viewBox="0 0 50 37.233" enable-background="new 0 0 50 37.233" xml:space="preserve">
<path fill="#673E21" stroke="#231F20" stroke-width="1.159" stroke-miterlimit="10" d="M45.249,7.114
	c0,1.367-1.109,2.474-2.475,2.474H7.226c-1.367,0-2.474-1.107-2.474-2.474l0,0c0-1.366,1.107-2.474,2.474-2.474h35.548
	C44.14,4.641,45.249,5.748,45.249,7.114L45.249,7.114z"/>
<path fill="#673E21" stroke="#231F20" stroke-width="1.159" stroke-miterlimit="10" d="M45.249,17.747
	c0,1.367-1.109,2.474-2.475,2.474H7.226c-1.367,0-2.474-1.107-2.474-2.474l0,0c0-1.366,1.107-2.473,2.474-2.473h35.548
	C44.14,15.273,45.249,16.38,45.249,17.747L45.249,17.747z"/>
<path fill="#673E21" stroke="#231F20" stroke-width="1.159" stroke-miterlimit="10" d="M45.248,28.381
	c0,1.367-1.109,2.473-2.475,2.473H7.226c-1.367,0-2.474-1.105-2.474-2.473l0,0c0-1.367,1.107-2.475,2.474-2.475h35.547
	C44.139,25.906,45.248,27.014,45.248,28.381L45.248,28.381z"/>
</svg>
