<?xml version="1.0" encoding="utf-8"?>
<!-- Generator: Adobe Illustrator 16.0.0, SVG Export Plug-In . SVG Version: 6.00 Build 0)  -->
<!DOCTYPE svg PUBLIC "-//W3C//DTD SVG 1.1//EN" "http://www.w3.org/Graphics/SVG/1.1/DTD/svg11.dtd">
<svg version="1.1" id="Layer_1" xmlns="http://www.w3.org/2000/svg" xmlns:xlink="http://www.w3.org/1999/xlink" x="0px" y="0px"
	 width="64.502px" height="37.233px" viewBox="0 0 64.502 37.233" enable-background="new 0 0 64.502 37.233" xml:space="preserve">
<path fill="#673E21" stroke="#231F20" stroke-width="1.5168" stroke-miterlimit="10" d="M62.922,5.069
	c0,1.629-1.594,2.95-3.554,2.95H8.306c-1.964,0-3.554-1.32-3.554-2.95l0,0c0-1.629,1.59-2.95,3.554-2.95h51.062
	C61.328,2.119,62.922,3.439,62.922,5.069L62.922,5.069z"/>
<path fill="#673E21" stroke="#231F20" stroke-width="1.5168" stroke-miterlimit="10" d="M62.922,17.747
	c0,1.63-1.594,2.95-3.554,2.95H8.306c-1.964,0-3.554-1.32-3.554-2.95l0,0c0-1.629,1.59-2.949,3.554-2.949h51.062
	C61.328,14.797,62.922,16.118,62.922,17.747L62.922,17.747z"/>
<path fill="#673E21" stroke="#231F20" stroke-width="1.5168" stroke-miterlimit="10" d="M62.921,30.427
	c0,1.63-1.594,2.948-3.556,2.948H8.306c-1.964,0-3.554-1.318-3.554-2.948l0,0c0-1.63,1.59-2.951,3.554-2.951h51.059
	C61.327,27.476,62.921,28.797,62.921,30.427L62.921,30.427z"/>
</svg>
